<svg width="40" height="42" viewBox="0 0 40 42" fill="none" xmlns="http://www.w3.org/2000/svg">
<ellipse cx="20" cy="21" rx="20" ry="21" fill="#F0F9F1"/>
<path d="M19.75 11.25C20.5788 11.25 21.3737 11.5792 21.9597 12.1653C22.5458 12.7513 22.875 13.5462 22.875 14.375V15H16.625V14.375C16.625 13.5462 16.9542 12.7513 17.5403 12.1653C18.1263 11.5792 18.9212 11.25 19.75 11.25ZM24.125 15V14.375C24.125 13.2147 23.6641 12.1019 22.8436 11.2814C22.0231 10.4609 20.9103 10 19.75 10C18.5897 10 17.4769 10.4609 16.6564 11.2814C15.8359 12.1019 15.375 13.2147 15.375 14.375V15H11V27.5C11 28.163 11.2634 28.7989 11.7322 29.2678C12.2011 29.7366 12.837 30 13.5 30H26C26.663 30 27.2989 29.7366 27.7678 29.2678C28.2366 28.7989 28.5 28.163 28.5 27.5V15H24.125Z" fill="#76C683"/>
</svg>
