<svg width="42" height="42" viewBox="0 0 42 42" fill="none" xmlns="http://www.w3.org/2000/svg">
<circle cx="21" cy="21" r="21" fill="#E9F5FE"/>
<path d="M14.25 28C14.25 28 13 28 13 26.75C13 25.5 14.25 21.75 20.5 21.75C26.75 21.75 28 25.5 28 26.75C28 28 26.75 28 26.75 28H14.25ZM20.5 20.5C21.4946 20.5 22.4484 20.1049 23.1517 19.4017C23.8549 18.6984 24.25 17.7446 24.25 16.75C24.25 15.7554 23.8549 14.8016 23.1517 14.0983C22.4484 13.3951 21.4946 13 20.5 13C19.5054 13 18.5516 13.3951 17.8483 14.0983C17.1451 14.8016 16.75 15.7554 16.75 16.75C16.75 17.7446 17.1451 18.6984 17.8483 19.4017C18.5516 20.1049 19.5054 20.5 20.5 20.5Z" fill="#2097F6"/>
</svg>
