<svg width="42" height="42" viewBox="0 0 42 42" fill="none" xmlns="http://www.w3.org/2000/svg">
<circle cx="21" cy="21" r="21" fill="#FFE6CA"/>
<path d="M31 21C31 23.6522 29.9464 26.1957 28.0711 28.0711C26.1957 29.9464 23.6522 31 21 31C18.3478 31 15.8043 29.9464 13.9289 28.0711C12.0536 26.1957 11 23.6522 11 21C11 18.3478 12.0536 15.8043 13.9289 13.9289C15.8043 12.0536 18.3478 11 21 11C23.6522 11 26.1957 12.0536 28.0711 13.9289C29.9464 15.8043 31 18.3478 31 21ZM26.0375 17.2125C25.9482 17.1235 25.8419 17.0535 25.7249 17.0065C25.6079 16.9596 25.4827 16.9367 25.3567 16.9393C25.2306 16.9418 25.1064 16.9698 24.9914 17.0215C24.8765 17.0731 24.7731 17.1475 24.6875 17.24L20.3463 22.7712L17.73 20.1537C17.5523 19.9881 17.3172 19.898 17.0743 19.9023C16.8315 19.9066 16.5997 20.005 16.428 20.1767C16.2562 20.3485 16.1578 20.5802 16.1535 20.8231C16.1492 21.066 16.2394 21.301 16.405 21.4788L19.7125 24.7875C19.8016 24.8764 19.9077 24.9465 20.0245 24.9936C20.1413 25.0406 20.2663 25.0637 20.3922 25.0613C20.5181 25.059 20.6422 25.0313 20.7571 24.98C20.8721 24.9286 20.9755 24.8547 21.0612 24.7625L26.0513 18.525C26.2214 18.3481 26.3153 18.1116 26.313 17.8662C26.3107 17.6208 26.2122 17.3861 26.0387 17.2125H26.0375Z" fill="#FF910E"/>
</svg>
