<svg id="Capa_1" enable-background="new 0 0 512 512" height="512" viewBox="0 0 512 512" width="512" xmlns="http://www.w3.org/2000/svg"><path d="m254.688 404.37c-3.348 4.685-7.075 9.12-11.183 13.229-19.923 19.93-46.413 30.905-74.589 30.905s-54.665-10.975-74.588-30.905c-41.124-41.137-41.124-108.073 0-149.21 4.138-4.14 8.553-7.884 13.203-11.23-10.513-16.62-19.392-33.241-26.193-49.24-.245-.577-.473-1.148-.713-1.723-11.763 6.961-22.651 15.408-32.554 25.313-64.042 64.063-64.042 168.302 0 232.365 31.025 31.034 72.275 48.126 116.152 48.126 43.876 0 85.126-17.092 116.151-48.126 9.767-9.77 18.245-20.755 25.249-32.588-.563-.235-1.122-.459-1.688-.699-16.001-6.807-32.625-15.694-49.247-26.217z"/><path d="m398.384 262.362c-24.386 2.86-46.742 13.431-63.479 30.172l-.662.665c-8.2 8.204-19.072 12.711-30.637 12.713 0 0-.006 0-.008 0-11.568 0-22.44-4.505-30.617-12.686l-55.69-55.708c-16.87-16.878-16.869-44.336.001-61.211l3.114-3.114c15.738-15.744 25.87-36.774 28.994-59.809-21.326-12.837-42.292-22.526-61.221-28.149-44.078-13.093-67.188-1.981-78.813 9.647-20.165 20.171-20.64 56.286-1.339 101.693 16.952 39.88 48.152 84.237 85.601 121.697 37.449 37.461 81.792 68.671 121.66 85.629 22.178 9.433 42.137 14.145 59.104 14.144 17.766 0 32.253-5.166 42.568-15.484 11.646-11.65 22.763-34.818 9.581-79.032-5.642-18.925-15.332-39.868-28.157-61.167z"/><path d="m476.636 32.846c-22.345-21.738-51.935-33.401-83.342-32.826-31.434.571-60.628 13.316-82.204 35.887-18.725 19.588-30.088 45.265-31.995 72.301-2.314 32.811-15.875 63.172-38.183 85.489l-3.111 3.112c-5.579 5.58-5.579 14.625-.001 20.205l55.693 55.71c2.68 2.681 6.316 4.187 10.108 4.187 3.791-.001 7.426-1.508 10.106-4.19l.689-.69c23.137-23.145 54.51-37.061 88.34-39.186 28.328-1.78 54.992-13.826 75.08-33.921 22.235-22.243 34.36-51.816 34.141-83.273-.218-31.452-12.762-60.859-35.321-82.805z"/></svg>