<svg id="Capa_1" enable-background="new 0 0 512 512" height="512" viewBox="0 0 512 512" width="512" xmlns="http://www.w3.org/2000/svg"><g><path d="m337.29 106.93c1.669 8.041 9.276 13.346 17.64 11.78 8.061-1.681 13.343-9.29 11.78-17.64-1.876-8.995-10.852-13.921-19.06-11.42-7.733 2.465-11.758 9.854-10.36 17.28z"/><path d="m497.027 111.958-53.7-7.388c-14.319-60.455-68.622-104.57-131.327-104.57-74.439 0-135 61.009-135 136 0 43.265 20.61 83.383 54.825 108.635-46.474 41.871-121.068 34.189-157.703-15.488-5.337-7.237-15.796-8.171-22.334-2.038-33.396 31.326-51.788 69.997-51.788 108.891 0 97.047 105.869 176 236 176 129.58 0 235-78.953 235-176 0-42.037-19.598-81.731-55.563-113.251 4.182-4.977 7.985-10.248 11.403-15.776 47.204-.589 85.16-33.125 85.16-80.015 0-8.276-6.701-14.986-14.973-15zm-114.337 325.586c-39.082 28.668-91.177 44.456-146.69 44.456-154.565 0-262.63-122.056-174.703-221.674 56.658 58.535 154.37 54.72 205.555-9.254 5.841-7.3 3.647-18.131-4.593-22.574-34.085-18.381-55.259-53.824-55.259-92.498 0-58.449 47.103-106 105-106 48.175 0 89.985 33.563 101.729 79.81-17.041 8.783-28.729 26.548-28.729 47.004v9.638c0 11.744 5.024 22.333 13.029 29.745-4.304 6.141-9.263 11.821-14.842 16.969-6.896 6.363-6.319 17.448 1.216 23.056 76.095 56.64 75.423 144.74-1.713 201.322zm42.858-260.544c-5.816 0-10.548-4.732-10.548-10.548v-9.638c0-12.302 9.769-22.364 21.957-22.839l43.421 5.974c-6.403 24.378-30.744 37.051-54.83 37.051z"/><path d="m337.725 296.375c-24.634-13.399-52.636-9.407-73.08 10.42-28.121 27.272-81.561 32.875-110.912 33.787-9.754.303-16.621 9.702-13.967 19.077 9.62 33.997 49.886 68.413 108.234 68.413 29.92 0 58.26-6.521 79.799-18.361 23.549-12.945 37.453-31.193 39.148-51.384 3.058-36.404-14.203-53.783-29.222-61.952zm-.672 59.441c-1.714 20.406-37.906 42.255-89.053 42.255-34.136 0-57.162-14.318-69.509-29.073 34.119-3.458 78.924-13.4 107.04-40.667 11.158-10.821 24.603-12.812 37.86-5.603 7.32 3.983 15.488 11.342 13.662 33.088z"/></g></svg>