<svg id="Capa_1" enable-background="new 0 0 512.015 512.015" height="512" viewBox="0 0 512.015 512.015" width="512" xmlns="http://www.w3.org/2000/svg"><g><path d="m511.52 211.734c.317-1.228.488-2.525.488-3.734 0-116.666-88.643-208-192-208h-24c-6.465 0-12.203 4.142-14.237 10.279l-60.593 182.721h-130.092l-19.331-62.826c-7.46-24.243-30.795-41.174-56.748-41.174-8.284 0-15 6.716-15 15s6.716 15 15 15c12.702 0 24.509 8.41 28.074 19.996 24.838 80.722 25.742 82.284 50.954 152.878 9.212 25.795 38.193 43.126 72.114 43.126h51.701l-14.004 35.006c-43.632-7.358-82.839 26.452-82.839 69.994 0 39.384 31.892 72 71 72 34.373 0 62.655-25.039 69.419-57h53.163c2.814 13.296 9.34 25.589 19.086 35.575 27.894 28.583 72.764 28.591 100.666 0 13.327-13.656 20.667-31.617 20.667-50.575 0-43.549-39.215-77.35-82.839-69.994l-14.005-35.006h51.702c33.885 0 62.839-17.294 72.084-43.042 30.998-83.818 29.259-79.012 29.57-80.224zm-204.683-181.734h13.171c84.731 0 154.478 71.841 161.431 163h-228.654zm-114.83 452c-22.224 0-41-19.234-41-42 0-22.607 18.393-41 41-41s41 18.393 41 41c0 22.766-18.775 42-41 42zm233-42c0 22.766-18.775 42-41 42s-41-19.234-41-42c0-22.607 18.393-41 41-41s41 18.393 41 41zm-80.689-58.843c-14.906 10.086-25.78 25.686-29.701 43.843h-53.218c-3.922-18.157-14.796-33.757-29.701-43.843l18.464-46.157h75.69zm109.468-99.531c-5.886 15.892-26.715 23.374-43.92 23.374-7.82 0-235.001 0-243.716 0-20.611 0-39.059-9.764-43.863-23.216l-20.994-58.784h374.175z"/></g></svg>